<svg width="253" height="32" viewBox="0 0 253 32" fill="none" xmlns="http://www.w3.org/2000/svg">
<g id="logo-gradient-blue-jira-service-desk">
<g clip-path="url(#clip0)">
<path d="M0 0H253V32H0V0Z" fill="white" fill-opacity="0.01"/>
<g id="Jira Service Desk">
<path d="M36.7176 4.26396H39.5558V18.5848C39.5558 22.3609 37.8673 24.9971 33.9512 24.9971C32.4782 24.9971 31.3285 24.7478 30.5381 24.4628V21.7197C31.4003 22.076 32.4422 22.2541 33.4841 22.2541C35.8913 22.2541 36.7176 20.8291 36.7176 18.7629V4.26396Z" fill="#253858"/>
<path d="M44.7654 3.1596C45.8792 3.1596 46.6696 3.83646 46.6696 5.04768C46.6696 6.22327 45.8792 6.93575 44.7654 6.93575C43.6517 6.93575 42.8613 6.25889 42.8613 5.04768C42.8613 3.83646 43.6517 3.1596 44.7654 3.1596ZM43.3642 9.18006H46.0947V24.8546H43.3642V9.18006Z" fill="#253858"/>
<path d="M52.8488 24.8546H50.1902V9.18005H52.8488V11.9231C53.7829 10.0706 55.3637 8.75256 58.4535 8.93068V11.5669C54.9685 11.2106 52.8488 12.2437 52.8488 15.5924V24.8546Z" fill="#253858"/>
<path d="M71.1718 22.0403C70.1658 24.1065 68.2617 25.1752 65.8186 25.1752C61.6151 25.1752 59.4954 21.6485 59.4954 17.0173C59.4954 12.6 61.7229 8.85944 66.142 8.85944C68.4413 8.85944 70.2377 9.89254 71.1718 11.9231V9.18006H73.9023V24.8546H71.1718V22.0403ZM66.5731 22.6459C69.0162 22.6459 71.1718 21.1141 71.1718 17.6229V16.3761C71.1718 12.885 69.1958 11.3531 66.8605 11.3531C63.8067 11.3531 62.2259 13.3481 62.2259 16.9817C62.2259 20.7935 63.7708 22.6459 66.5731 22.6459Z" fill="#253858"/>
<path d="M89.9977 25.1752C85.9738 25.1752 84.1056 24.3915 82.4889 23.5722V20.6866C84.429 21.6841 87.375 22.3966 90.1414 22.3966C93.2671 22.3966 94.4527 21.1854 94.4527 19.3685C94.4527 17.5517 93.303 16.5899 89.351 15.628C84.6805 14.488 82.5967 12.885 82.5967 9.50069C82.5967 6.29453 85.0757 3.90772 89.8899 3.90772C92.9078 3.90772 94.812 4.6202 96.249 5.40393V8.21823C94.1653 7.04263 91.9018 6.65077 89.7821 6.65077C87.0517 6.65077 85.4349 7.57699 85.4349 9.46506C85.4349 11.175 86.7642 11.9944 90.4288 12.9206C94.812 14.0249 97.2909 15.4143 97.2909 19.1192C97.2909 22.7528 95.1353 25.1752 89.9977 25.1752Z" fill="#253858"/>
<path d="M108.213 25.1752C102.285 25.1752 99.6981 21.7909 99.6981 16.9817C99.6981 12.2437 102.357 8.85944 107.171 8.85944C112.057 8.85944 113.997 12.2081 113.997 16.9817V18.1929H102.465C102.86 20.8647 104.584 22.5747 108.321 22.5747C110.153 22.5747 111.698 22.2184 113.135 21.7197V24.2134C111.806 24.9259 109.83 25.1752 108.213 25.1752ZM102.429 15.8774H111.267C111.123 12.9562 109.794 11.3175 107.063 11.3175C104.153 11.3175 102.716 13.1699 102.429 15.8774Z" fill="#253858"/>
<path d="M119.853 24.8546H117.195V9.18005H119.853V11.9231C120.787 10.0706 122.368 8.75256 125.458 8.93068V11.5669C121.973 11.2106 119.853 12.2437 119.853 15.5924V24.8546Z" fill="#253858"/>
<path d="M132.176 24.8546L126.033 9.18004H128.871L134.009 22.5747L139.11 9.18004H141.949L135.805 24.8546H132.176Z" fill="#253858"/>
<path d="M145.685 3.1596C146.799 3.1596 147.589 3.83646 147.589 5.04768C147.589 6.22327 146.799 6.93575 145.685 6.93575C144.571 6.93575 143.781 6.25889 143.781 5.04768C143.781 3.83646 144.571 3.1596 145.685 3.1596ZM144.284 9.18006H147.014V24.8546H144.284V9.18006Z" fill="#253858"/>
<path d="M162.283 24.4627C161.349 24.9615 159.876 25.1752 158.439 25.1752C152.799 25.1752 150.176 21.7909 150.176 16.9817C150.176 12.2437 152.799 8.85944 158.439 8.85944C159.876 8.85944 160.954 9.03756 162.212 9.60755V12.1012C161.206 11.6381 160.128 11.3531 158.655 11.3531C154.559 11.3531 152.871 13.918 152.871 16.9817C152.871 20.0454 154.595 22.6103 158.727 22.6103C160.343 22.6103 161.349 22.3966 162.319 22.0403V24.4627H162.283Z" fill="#253858"/>
<path d="M172.918 25.1752C166.99 25.1752 164.403 21.7909 164.403 16.9817C164.403 12.2437 167.062 8.85944 171.876 8.85944C176.762 8.85944 178.702 12.2081 178.702 16.9817V18.1929H167.17C167.565 20.8647 169.289 22.5747 173.026 22.5747C174.858 22.5747 176.403 22.2184 177.84 21.7197V24.2134C176.511 24.9259 174.535 25.1752 172.918 25.1752ZM167.134 15.8774H175.972C175.828 12.9562 174.499 11.3175 171.768 11.3175C168.858 11.3175 167.421 13.1699 167.134 15.8774Z" fill="#253858"/>
<path d="M188.079 4.26396H195.732C202.45 4.26396 205.72 8.43197 205.72 14.5949C205.72 20.8291 202.414 24.8546 195.732 24.8546H188.079V4.26396ZM190.918 6.97139V22.1828H195.768C200.51 22.1828 202.881 19.6891 202.881 14.7374C202.881 9.71443 200.654 7.00701 195.624 7.00701H190.918V6.97139Z" fill="#253858"/>
<path d="M216.57 25.1752C210.642 25.1752 208.055 21.7909 208.055 16.9817C208.055 12.2437 210.713 8.85944 215.528 8.85944C220.414 8.85944 222.354 12.2081 222.354 16.9817V18.1929H210.821C211.216 20.8647 212.941 22.5747 216.677 22.5747C218.51 22.5747 220.054 22.2184 221.492 21.7197V24.2134C220.198 24.9259 218.186 25.1752 216.57 25.1752ZM210.785 15.8774H219.623C219.48 12.9562 218.15 11.3175 215.42 11.3175C212.546 11.3175 211.073 13.1699 210.785 15.8774Z" fill="#253858"/>
<path d="M230.545 25.1752C228.174 25.1752 226.234 24.6409 225.048 23.9996V21.1497C226.414 21.9334 228.677 22.6815 230.689 22.6815C232.773 22.6815 233.851 21.8266 233.851 20.6154C233.851 19.4398 232.916 18.7273 229.934 18.0148C226.414 17.1598 224.941 15.8061 224.941 13.2412C224.941 10.4981 227.06 8.85944 230.653 8.85944C232.701 8.85944 234.569 9.35818 235.755 9.99941V12.7781C233.851 11.8519 232.306 11.3531 230.617 11.3531C228.641 11.3531 227.563 12.03 227.563 13.2768C227.563 14.3812 228.318 15.058 231.228 15.7705C234.749 16.6255 236.509 17.9079 236.509 20.6154C236.509 23.1803 234.785 25.1752 230.545 25.1752Z" fill="#253858"/>
<path d="M239.635 24.8546V2.62524H242.365V16.5186L249.156 9.18006H252.712L245.276 16.8748L253.036 24.8546H249.335L242.365 17.5161V24.8546H239.635Z" fill="#253858"/>
</g>
<g id="Icon">
<path id="Vector" d="M12.6824 11.6505L20.0834 11.6861C21.0175 11.6861 21.5564 12.7547 21.0175 13.5028L10.0956 28.0001C6.64658 25.4711 5.96396 20.6268 8.51479 17.2072L12.6824 11.6505Z" fill="url(#paint0_linear)"/>
<path id="Vector_2" d="M8.51494 17.2071L1.14985 17.1715C0.215736 17.1715 -0.323174 16.1029 0.215736 15.3549L11.0658 1C14.5148 3.52902 15.1974 8.37335 12.6466 11.7929L8.51494 17.2071Z" fill="#2684FF"/>
</g>
</g>
</g>
<defs>
<linearGradient id="paint0_linear" x1="12.4023" y1="12.7429" x2="15.4676" y2="22.0888" gradientUnits="userSpaceOnUse">
<stop stop-color="#0052CC"/>
<stop offset="1" stop-color="#2684FF"/>
</linearGradient>
<clipPath id="clip0">
<path d="M0 0H253V32H0V0Z" fill="white"/>
</clipPath>
</defs>
</svg>
