<svg id="Layer_1" enable-background="new 0 0 511.875 511.875" height="512" viewBox="0 0 511.875 511.875" width="512" xmlns="http://www.w3.org/2000/svg"><g><path d="m445.851 134.197c-34.095-70.536-106.317-119.197-189.914-119.197s-155.818 48.661-189.913 119.197h-6.552v30h69.286l4.306-7.622c25.012-44.272 72.094-71.775 122.873-71.775s97.861 27.503 122.873 71.775l4.306 7.622h69.285v-30z" fill="#4895ff"/><path d="m445.851 134.197c-34.095-70.536-106.317-119.197-189.914-119.197v69.8c50.779 0 97.861 27.503 122.873 71.775l4.306 7.622h69.285v-30z" fill="#515be0"/><g><path d="m450.797 482.833h-165.818v-30h135.818v-76.522h30z" fill="#607882"/></g><g><path d="m450.797 482.833h-165.818v-30h135.818v-76.522h30z" fill="#495959"/></g><circle cx="255.937" cy="467.833" fill="#495959" r="44.042"/><path d="m160.715 236.384v130.39h65.64l29.607 31.34 29.472-31.34h65.725v-130.39z" fill="#fff5f5"/><g><path d="m481.764 251.317h-30v-25.49c0-107.979-87.847-195.827-195.827-195.827-107.979 0-195.826 87.848-195.826 195.827v25.49h-30v-25.49c0-60.32 23.49-117.031 66.143-159.684 42.652-42.653 99.363-66.143 159.683-66.143 60.321 0 117.031 23.49 159.684 66.144 42.653 42.652 66.143 99.363 66.143 159.684z" fill="#607882"/></g><path d="m415.621 66.144c-42.653-42.654-99.363-66.144-159.684-66.144v30c107.979 0 195.827 87.848 195.827 195.827v25.49h30v-25.49c0-60.32-23.49-117.031-66.143-159.683z" fill="#495959"/><path d="m30.111 236.317h91.935v154.993h-91.935z" fill="#4895ff"/><path d="m389.829 236.317h91.936v154.993h-91.936z" fill="#4895ff"/><path d="m389.829 236.317h91.936v154.993h-91.936z" fill="#515be0"/><path d="m299.979 467.833c0-24.285-19.757-44.042-44.042-44.042v88.084c24.285 0 44.042-19.757 44.042-44.042z" fill="#323c3c"/><path d="m255.962 398.114 29.472-31.34h65.725v-130.39h-95.222v161.704z" fill="#e1ebf0"/></g></svg>